<svg width="550" height="323" viewBox="0 0 550 323" fill="none" xmlns="http://www.w3.org/2000/svg">
<g clip-path="url(#clip0)">
<path d="M327.735 207.968L327.443 207.851C327.385 207.851 325.692 207.21 325.284 205.577C324.934 204.12 325.576 202.487 327.268 200.622C331.529 195.957 342.444 179.224 344.137 167.855V166.456C340.051 165.64 320.323 161.442 310.575 151.997C308.707 150.189 306.548 148.965 304.33 147.624C294.174 141.619 282.617 134.797 285.827 74.1035C285.827 73.4622 286.411 60.927 294.582 46.4678C302.17 33.1164 318.046 15.742 350.616 8.62899C377.757 2.68206 402.329 7.11311 423.692 21.8638C444.354 36.0898 453.868 54.397 455.561 57.9535C463.791 75.0364 470.036 112.234 441.261 143.426C426.26 159.693 407.874 164.998 395.092 166.631C383.243 168.147 374.079 166.806 371.453 166.339C369.643 171.178 357.97 198.873 327.969 207.968H327.735ZM373.262 7.81275C366.025 7.81275 358.612 8.62899 350.966 10.3198C319.097 17.3162 303.571 34.2824 296.158 47.284C288.104 61.3934 287.578 74.0452 287.578 74.1618C284.426 133.864 295.458 140.394 305.205 146.108C307.423 147.449 309.758 148.79 311.801 150.714C322.132 160.684 344.954 164.765 345.187 164.823L345.888 164.94V168.03C344.078 180.332 332.638 197.415 328.552 201.788C327.327 203.129 326.743 204.353 326.977 205.111C327.093 205.636 327.56 205.927 327.794 206.102C359.429 196.307 369.994 165.29 370.11 164.94L370.344 164.182L371.103 164.357C371.219 164.357 381.434 166.456 394.975 164.765C407.407 163.191 425.385 158.002 439.977 142.143C468.168 111.651 462.04 75.3279 454.043 58.6532C452.351 55.2133 443.012 37.1976 422.7 23.2631C407.758 12.9434 391.181 7.81275 373.262 7.81275Z" fill="#333333"/>
<path d="M-2.02656e-06 256.534C-0.642048 256.534 -1.16736 256.01 -1.16736 255.368C-1.16736 254.727 -0.642048 254.202 -2.02656e-06 254.202L550 249.888C550.642 249.888 551.167 250.412 551.167 251.054C551.167 251.695 550.642 252.22 550 252.22L-2.02656e-06 256.534Z" fill="#333333"/>
<path d="M89.1861 58.3033C89.1861 58.3033 84.6334 65.358 80.3141 68.3315C75.9949 71.3049 75.9949 73.3456 76.2284 77.4268C76.4619 81.508 75.061 88.7959 72.6096 92.8771C70.0998 96.9584 68.9908 102.206 68.9908 106.054C68.9908 109.902 66.7144 122.204 66.7144 124.244C66.7144 126.285 61.4613 138.82 61.4613 143.368C61.4613 147.915 56.6752 156.136 60.294 161.442C63.9128 166.747 64.3797 191.118 63.5042 196.365C62.5703 201.613 63.7377 205.927 66.2475 207.968C68.7573 210.008 70.5667 212.982 69.2243 216.83C67.8818 220.678 68.7573 230.006 70.5667 234.554C72.3761 239.102 75.3529 246.623 77.8627 251.637C80.3725 256.651 81.3064 258.458 82.1819 261.665C83.0574 264.872 85.6256 269.186 88.3105 272.568C91.0538 276.008 96.949 288.018 102.902 288.718C108.798 289.417 112.241 284.17 113.584 288.718C114.926 293.265 113.817 298.979 117.028 301.02C120.238 303.06 124.557 305.334 129.343 306.5C134.129 307.666 140.491 310.115 144.169 311.514C147.787 312.855 152.574 314.021 156.718 315.596C160.803 317.17 175.162 316.762 184.501 317.869C193.84 319.035 193.84 317.403 202.245 315.596C210.649 313.788 229.327 312.389 232.537 312.156C235.748 311.922 241.876 306.034 248.238 305.101C254.6 304.168 262.363 301.02 265.107 298.046C267.85 295.073 270.185 291.458 275.088 288.718C279.99 285.978 281.508 285.978 282.442 283.47C283.376 280.963 281.741 281.43 284.952 276.649C288.162 271.868 288.395 270.935 290.672 269.361C292.948 267.787 294.991 270.294 295.691 265.513C296.392 260.732 297.501 256.651 299.135 252.978C300.711 249.363 304.622 246.623 305.497 242.716C306.431 238.868 306.665 231.814 307.54 226.8C308.474 221.786 306.198 212.224 308.707 207.21C311.217 202.196 309.408 193.1 308.707 189.719C308.007 186.279 312.326 182.198 312.793 177.65C313.26 173.102 305.964 169.254 305.731 161.383C305.497 153.513 305.264 136.022 308.24 131.649C311.217 127.334 310.283 121.621 307.073 117.773C303.863 113.925 304.096 108.211 304.33 104.829C304.563 101.389 296.567 95.734 294.991 94.5679C293.415 93.4019 292.715 81.7995 290.205 76.1441C287.695 70.4304 282.909 70.8968 281.333 65.0082C279.757 59.1196 275.613 56.3793 272.928 53.1726C270.185 49.9659 266.799 45.4183 264.523 40.4042C262.247 35.3901 256.351 33.058 252.966 30.3177C249.522 27.5775 242.46 25.5369 237.499 17.1412C232.479 8.74554 222.031 15.3338 217.012 10.5529C211.992 5.77208 208.14 4.4311 204.054 4.4311C199.968 4.4311 194.248 5.13074 191.505 4.4311C188.762 3.73146 184.909 2.44879 181.232 1.22442C177.555 5.24819e-05 169.85 -1.74905 166.173 1.22442C162.554 4.19789 158.002 6.47171 155.667 7.11305C153.332 7.75438 148.838 9.38688 142.476 9.8533C136.114 10.3197 127.417 13.7013 125.141 16.6748C122.864 19.6483 120.354 23.4963 117.378 24.6623C114.401 25.8284 109.206 27.1694 107.805 29.4432C106.463 31.717 102.552 39.9378 101.91 42.2116C101.21 44.4854 101.21 47.4589 96.1902 51.0737C91.2289 54.6885 89.1861 58.3033 89.1861 58.3033Z" fill="#F1F2F2"/>
<path d="M161.329 283.762C161.329 283.762 165.998 294.14 164.364 300.32C162.788 306.5 158.177 307.841 157.009 308.25C156.834 308.308 152.457 309.591 153.916 312.739C155.959 317.112 160.278 313.439 160.278 313.439C160.278 313.439 159.227 317.52 161.971 317.462C164.714 317.403 167.049 313.614 167.049 313.614C167.049 313.614 164.247 319.211 168.158 318.802C172.068 318.336 171.835 316.004 171.835 316.004C171.835 316.004 171.952 319.386 174.17 318.453C176.388 317.462 179.831 308.075 180.24 304.576C180.648 301.078 180.473 288.077 180.473 288.077L161.329 283.762Z" fill="white"/>
<path d="M167.807 319.677C166.64 319.677 165.998 319.152 165.706 318.686C165.356 318.219 165.239 317.578 165.239 316.937C164.305 317.695 163.196 318.278 162.029 318.278C160.92 318.336 160.278 317.811 159.928 317.345C159.403 316.704 159.286 315.829 159.227 315.071C158.352 315.479 157.185 315.829 156.017 315.596C154.791 315.304 153.799 314.488 153.157 313.03C152.69 312.039 152.632 311.048 153.04 310.174C153.799 308.483 155.9 307.667 156.776 307.375L156.951 307.317C158.235 306.85 162.204 305.509 163.605 300.029C165.123 294.198 160.687 284.17 160.628 284.054C160.512 283.762 160.512 283.412 160.745 283.121C160.978 282.888 161.27 282.771 161.62 282.829L180.765 287.144C181.174 287.26 181.466 287.552 181.466 287.96C181.466 288.485 181.641 301.078 181.232 304.576C180.824 308.016 177.38 317.928 174.637 319.152C173.586 319.56 172.885 319.327 172.477 319.094C172.185 318.861 171.893 318.628 171.718 318.278C171.076 318.861 170.025 319.385 168.391 319.56C168.099 319.677 167.924 319.677 167.807 319.677ZM167.049 312.739C167.165 312.739 167.341 312.797 167.457 312.855C167.866 313.089 168.041 313.613 167.807 314.022C167.224 315.188 166.64 317.112 167.049 317.753C167.224 317.986 167.691 317.986 168.041 317.986C170.317 317.695 170.959 316.704 170.959 316.179V316.12C170.959 315.654 171.31 315.246 171.776 315.246C172.243 315.246 172.652 315.537 172.71 316.004C172.71 316.004 172.71 316.004 172.71 316.062C172.71 316.645 172.944 317.578 173.294 317.811C173.411 317.87 173.586 317.87 173.819 317.753C175.454 316.995 178.897 308.366 179.364 304.576C179.715 301.661 179.656 291.633 179.598 288.893L162.788 285.103C164.072 288.31 166.523 295.656 165.239 300.67C164.13 304.926 161.562 307.783 157.476 309.124L157.301 309.182C156.251 309.532 155.025 310.174 154.616 311.048C154.441 311.456 154.441 311.923 154.733 312.506C155.142 313.439 155.725 313.963 156.367 314.08C157.651 314.371 159.227 313.322 159.694 312.914C159.986 312.681 160.395 312.622 160.745 312.855C161.095 313.03 161.212 313.439 161.154 313.788C160.978 314.43 160.803 315.887 161.27 316.47C161.387 316.587 161.562 316.762 161.971 316.704C163.838 316.645 165.765 314.196 166.348 313.264C166.465 312.914 166.757 312.739 167.049 312.739Z" fill="#333333"/>
<path d="M198.742 288.135C198.742 288.135 198.334 307.2 198.742 307.491C199.151 307.724 199.618 319.677 203.587 319.677C208.957 319.677 209.19 315.129 209.19 315.129C209.19 315.129 212.284 320.551 215.144 316.062C215.144 316.062 220.163 319.735 220.047 313.788C220.047 313.788 228.393 317.461 228.218 312.447C228.043 307.433 222.848 305.975 220.105 302.011C217.362 298.046 215.436 296.938 215.202 285.044L198.742 288.135Z" fill="white"/>
<path d="M203.587 320.551C199.793 320.551 198.742 313.322 198.217 309.415C198.1 308.774 198.042 308.016 197.984 307.899C197.984 307.958 198.042 307.958 198.042 308.016C197.692 307.433 197.517 304.926 197.867 288.135C197.867 287.727 198.159 287.377 198.567 287.318L215.027 284.228C215.261 284.17 215.552 284.228 215.727 284.403C215.903 284.578 216.019 284.811 216.078 285.045C216.253 295.248 217.712 297.23 219.872 300.204C220.163 300.612 220.514 301.02 220.805 301.544C221.739 302.885 223.082 303.993 224.308 305.043C226.584 306.908 228.919 308.891 229.035 312.447C229.094 314.08 228.393 314.954 227.751 315.362C225.883 316.587 222.615 315.712 220.805 315.071C220.63 316.412 220.105 317.345 219.23 317.811C217.887 318.511 216.253 317.811 215.319 317.286C214.502 318.277 213.568 318.802 212.517 318.744C211.292 318.686 210.241 317.928 209.482 317.111C208.84 318.802 207.031 320.551 203.587 320.551ZM199.56 307.083C199.735 307.375 199.793 307.958 199.968 309.182C200.318 311.573 201.311 318.802 203.587 318.802C207.965 318.802 208.315 315.479 208.315 315.071C208.315 314.663 208.607 314.371 209.015 314.255C209.365 314.196 209.774 314.313 209.949 314.663C210.299 315.246 211.467 316.878 212.634 316.936C213.218 316.995 213.801 316.47 214.385 315.537C214.502 315.362 214.735 315.187 214.969 315.129C215.202 315.071 215.436 315.129 215.669 315.304C216.253 315.77 217.77 316.528 218.471 316.179C218.938 315.945 219.171 315.071 219.171 313.788C219.171 313.497 219.288 313.205 219.58 313.03C219.813 312.855 220.163 312.855 220.397 312.972C222.206 313.788 225.533 314.721 226.817 313.846C227.051 313.672 227.401 313.38 227.343 312.447C227.226 309.707 225.358 308.133 223.199 306.325C221.856 305.218 220.455 304.051 219.346 302.477C219.054 302.011 218.704 301.603 218.412 301.195C216.194 298.163 214.618 295.947 214.268 286.036L199.501 288.776C199.443 295.539 199.326 305.626 199.56 307.083Z" fill="#333333"/>
<path d="M177.555 44.8352C177.555 44.8352 198.684 41.2204 221.856 54.3387C245.028 67.4569 271.352 109.027 270.476 175.959C269.601 242.891 247.538 267.379 238.899 273.734C230.261 280.089 194.365 300.961 147.379 278.048C100.393 255.135 99.2253 206.802 96.7155 177.3C94.2057 147.799 102.436 50.0825 177.555 44.8352Z" fill="white"/>
<path d="M190.454 289.126C176.037 289.126 161.562 285.569 147.145 278.573C102.494 256.826 98.9335 212.049 96.5988 182.489C96.482 180.74 96.3069 178.991 96.1902 177.359C94.6143 158.993 96.8906 103.897 125.841 70.139C139.266 54.4554 156.659 45.7682 177.555 44.3106C178.489 44.1357 199.56 41.0456 222.206 53.8724C247.188 67.9817 271.994 111.243 271.119 176.018C270.768 204.994 266.391 229.19 258.219 247.847C250.923 264.522 242.577 271.868 239.308 274.259C236.273 276.474 225.008 284.054 207.673 287.493C201.953 288.543 196.174 289.126 190.454 289.126ZM184.559 45.0103C180.298 45.0103 177.672 45.4184 177.613 45.4184H177.555C157.009 46.876 139.908 55.3882 126.658 70.8969C97.9996 104.363 95.7232 159.051 97.2992 177.3C97.4159 178.933 97.591 180.682 97.7077 182.431C100.042 211.758 103.603 256.068 147.612 277.582C167.516 287.319 187.653 290.234 207.381 286.327C224.424 282.946 235.514 275.483 238.549 273.326C241.701 270.994 249.873 263.822 257.052 247.381C265.165 228.84 269.484 204.819 269.893 176.018C270.71 111.709 246.254 68.8563 221.564 54.9218C206.739 46.4678 192.672 45.0103 184.559 45.0103Z" fill="#333333"/>
<path d="M105.12 171.587C104.77 171.587 104.478 171.412 104.303 171.062C104.128 170.654 104.303 170.129 104.712 169.896C104.945 169.779 111.541 166.923 157.593 167.272C183.333 167.447 202.128 165.407 218.704 163.541C232.012 162.083 244.561 160.684 258.628 160.684C259.095 160.684 259.503 161.092 259.503 161.559C259.503 162.025 259.095 162.433 258.628 162.433C244.678 162.433 232.129 163.832 218.879 165.29C202.245 167.156 183.392 169.255 157.593 169.021C112.592 168.672 105.763 171.412 105.471 171.528C105.354 171.587 105.237 171.587 105.12 171.587Z" fill="#333333"/>
<path d="M183.917 162.083C181.874 162.083 180.181 161.325 178.897 159.926C175.395 155.961 176.446 147.857 176.504 147.507C176.563 147.041 177.03 146.691 177.497 146.749C177.963 146.808 178.314 147.274 178.255 147.74C178.255 147.799 177.263 155.378 180.24 158.76C181.174 159.809 182.341 160.334 183.917 160.334C185.435 160.334 186.66 159.809 187.653 158.76C190.804 155.32 190.162 147.449 190.162 147.332C190.104 146.866 190.454 146.399 190.98 146.399C191.446 146.341 191.913 146.691 191.913 147.216C191.972 147.565 192.614 155.903 188.937 159.926C187.594 161.383 185.96 162.083 183.917 162.083Z" fill="#333333"/>
<path d="M190.279 155.961H177.613C177.146 155.961 176.738 155.553 176.738 155.086C176.738 154.62 177.146 154.212 177.613 154.212H190.279C190.746 154.212 191.155 154.62 191.155 155.086C191.155 155.553 190.746 155.961 190.279 155.961Z" fill="#333333"/>
<path d="M156.426 150.947C156.309 150.947 156.134 150.947 156.017 150.947C146.853 150.831 139.091 145.758 133.546 136.313C123.506 119.23 123.565 92.2942 133.662 73.6955C134.071 72.8792 145.044 51.3653 165.356 58.1285C185.843 64.8917 184.384 114.391 184.267 116.49C184.267 117.19 183.975 134.389 173.819 144.301C169.267 148.673 163.43 150.947 156.426 150.947ZM157.535 58.4783C143.118 58.4783 135.588 73.6955 135.18 74.3951V74.4534C125.316 92.5857 125.257 118.764 135.005 135.38C138.682 141.619 145.277 149.023 156.017 149.198C162.729 149.256 168.274 147.216 172.594 142.96C182.224 133.515 182.516 116.548 182.516 116.373C182.516 115.849 184.034 66.116 164.772 59.7027C162.204 58.8864 159.811 58.4783 157.535 58.4783Z" fill="#333333"/>
<path d="M218.296 151.647C208.898 151.647 200.202 144.825 192.264 131.299C189.228 125.993 186.427 113.05 185.551 99.8149C184.501 84.1897 186.252 71.4212 190.279 64.7747H190.337C191.33 62.9673 196.875 57.1369 205.046 55.5044C206.33 55.0963 227.343 49.2077 239.425 75.2693C248.297 94.2761 246.721 117.423 241.293 131.94C237.966 140.86 233.179 146.924 227.401 149.489C224.308 151.005 221.272 151.647 218.296 151.647ZM191.797 65.7658C183.158 79.9918 187.769 120.046 193.781 130.482C203.704 147.449 214.794 153.337 226.759 148.032C231.954 145.7 236.565 139.811 239.717 131.474C246.02 114.741 245.262 91.944 237.907 76.1438C226.117 50.7819 205.805 57.2535 205.571 57.3119H205.455C196.991 59.0026 192.03 65.416 191.797 65.7658Z" fill="#333333"/>
<path d="M123.973 240.035C123.74 240.035 123.506 239.976 123.273 239.86C122.806 239.627 122.456 239.277 122.281 238.81C121.989 238.985 121.755 239.102 121.697 239.16C121.522 239.218 121.347 239.277 121.23 239.218C119.887 238.985 118.954 238.461 118.37 237.586C117.261 235.837 117.961 233.272 118.545 230.998C118.837 229.948 119.07 229.015 119.129 228.257C119.245 225.809 117.203 216.422 116.385 212.982C116.269 212.516 116.561 212.049 117.027 211.933C117.494 211.816 117.961 212.107 118.078 212.574C118.195 213.099 120.996 225.167 120.821 228.316C120.763 229.19 120.471 230.298 120.179 231.406C119.654 233.33 119.07 235.487 119.771 236.537C120.004 236.945 120.471 237.236 121.172 237.353C121.463 237.178 121.755 236.886 121.755 236.653C121.755 236.187 122.164 235.779 122.631 235.779C123.098 235.779 123.506 236.187 123.506 236.653C123.506 237.353 123.74 238.111 123.915 238.227C123.973 238.227 124.265 238.169 124.907 237.644C124.907 237.644 125.374 237.178 125.432 236.42C125.432 236.012 125.724 235.662 126.133 235.604C126.541 235.545 126.892 235.72 127.067 236.07C127.359 236.653 127.942 237.294 128.176 237.294C128.292 237.294 128.643 237.061 129.11 236.128C129.285 235.72 129.752 235.545 130.16 235.662C131.094 235.953 132.261 236.07 132.495 235.895C132.495 235.895 132.495 235.662 132.203 235.079C131.386 233.505 129.577 232.28 127.942 231.231C126.308 230.181 125.082 229.307 124.849 228.141C124.44 226.333 122.923 210.417 122.864 209.717C122.806 209.251 123.156 208.784 123.681 208.784C124.148 208.726 124.615 209.076 124.615 209.6C125.024 214.148 126.25 226.333 126.6 227.791C126.717 228.257 128.001 229.132 128.993 229.773C130.686 230.881 132.787 232.339 133.837 234.263C134.421 235.429 134.479 236.362 133.896 237.003C133.079 237.936 131.444 237.761 130.394 237.528C129.81 238.519 129.11 238.985 128.292 239.044C127.592 239.044 127.067 238.694 126.658 238.286C126.425 238.635 126.191 238.869 126.133 238.869C125.316 239.743 124.615 240.035 123.973 240.035Z" fill="#333333"/>
<path d="M254.017 235.778C253.958 235.778 253.958 235.778 253.9 235.778C252.791 235.72 252.149 235.137 251.74 234.321C251.39 234.612 250.923 234.845 250.34 234.962C249.406 235.137 248.88 234.729 248.647 234.437C248.413 234.146 248.238 233.796 248.18 233.446C247.771 233.563 247.304 233.621 246.662 233.563C243.919 233.388 243.569 232.105 243.335 230.239C243.16 228.432 246.487 224.351 248.18 222.427L247.304 205.227C247.304 204.761 247.655 204.353 248.122 204.295C248.589 204.295 248.997 204.644 249.055 205.111L249.931 222.66C249.931 222.893 249.873 223.126 249.698 223.301C247.129 226.217 245.028 229.307 245.086 230.065C245.262 231.58 245.262 231.755 246.721 231.872C247.946 231.93 248.297 231.522 248.355 231.464C248.53 231.056 248.997 230.881 249.406 230.997C249.873 231.114 250.106 231.58 249.989 232.047C249.873 232.455 249.873 233.038 249.931 233.213C249.931 233.213 249.989 233.213 250.048 233.213C251.098 233.038 251.157 231.755 251.157 231.697C251.215 231.231 251.624 230.881 252.091 230.881C252.558 230.881 252.908 231.289 252.908 231.755C252.908 231.755 252.966 233.971 253.9 234.029C254.25 234.029 254.484 233.913 254.717 233.738C255.184 233.213 255.359 232.28 255.301 231.755C255.301 231.406 255.476 231.114 255.768 230.939C256.06 230.764 256.41 230.764 256.702 230.997C257.227 231.347 258.161 231.697 258.453 231.522C258.628 231.406 258.861 230.881 258.745 229.715C258.394 225.575 255.242 224.526 255.184 224.526C254.776 224.409 254.542 224.059 254.542 223.651L255.418 204.703C255.418 204.236 255.826 203.828 256.351 203.886C256.818 203.886 257.227 204.295 257.169 204.819L256.293 223.185C257.519 223.768 260.029 225.517 260.379 229.598C260.554 231.347 260.145 232.513 259.212 233.096C258.453 233.563 257.519 233.388 256.818 233.155C256.643 233.796 256.351 234.496 255.826 235.02C255.534 235.487 254.834 235.778 254.017 235.778Z" fill="#333333"/>
<path d="M267.558 135.555C267.15 135.555 266.799 135.264 266.683 134.856C266.566 134.389 266.858 133.923 267.325 133.806L309.7 124.244C310.167 124.128 310.634 124.419 310.75 124.886C310.867 125.352 310.575 125.819 310.108 125.935L267.733 135.497C267.675 135.555 267.616 135.555 267.558 135.555Z" fill="#333333"/>
<path d="M270.068 155.903C269.659 155.903 269.251 155.611 269.192 155.145C269.134 154.678 269.484 154.212 269.951 154.154L305.381 149.14C305.847 149.081 306.314 149.431 306.373 149.898C306.431 150.364 306.081 150.83 305.614 150.889L270.185 155.903C270.126 155.903 270.126 155.903 270.068 155.903Z" fill="#333333"/>
<path d="M271.119 176.776C270.652 176.776 270.243 176.368 270.243 175.901C270.243 175.435 270.652 175.027 271.119 175.027C284.251 175.027 311.276 171.703 311.509 171.645C311.976 171.587 312.443 171.937 312.501 172.403C312.56 172.869 312.209 173.336 311.743 173.394C311.451 173.394 284.368 176.776 271.119 176.776Z" fill="#333333"/>
<path d="M309.058 198.173C309.058 198.173 308.999 198.173 309.058 198.173L270.01 195.957C269.543 195.957 269.134 195.491 269.192 195.024C269.192 194.558 269.601 194.208 270.126 194.208L309.116 196.424C309.583 196.424 309.992 196.89 309.933 197.356C309.933 197.823 309.525 198.173 309.058 198.173Z" fill="#333333"/>
<path d="M303.571 221.844C303.513 221.844 303.454 221.844 303.396 221.844L267.383 215.547C266.916 215.489 266.566 215.022 266.683 214.556C266.799 214.089 267.208 213.739 267.675 213.856L303.688 220.153C304.155 220.211 304.505 220.678 304.388 221.144C304.33 221.552 303.98 221.844 303.571 221.844Z" fill="#333333"/>
<path d="M303.571 248.313C303.454 248.313 303.338 248.313 303.162 248.197C303.046 248.138 288.395 240.967 262.655 234.612C262.188 234.495 261.896 234.029 262.013 233.563C262.13 233.096 262.597 232.805 263.064 232.921C288.979 239.335 303.805 246.564 303.921 246.622C304.33 246.856 304.505 247.38 304.33 247.789C304.213 248.138 303.921 248.313 303.571 248.313Z" fill="#333333"/>
<path d="M292.831 270.177C292.656 270.177 292.481 270.119 292.364 270.06L257.811 247.439C257.402 247.147 257.285 246.623 257.577 246.214C257.869 245.806 258.394 245.69 258.803 245.981L293.357 268.603C293.765 268.894 293.882 269.419 293.59 269.827C293.415 270.06 293.123 270.177 292.831 270.177Z" fill="#333333"/>
<path d="M277.948 287.435C277.831 287.435 277.773 287.435 277.656 287.377C270.01 284.928 249.756 264.23 248.88 263.356C248.53 263.006 248.53 262.481 248.88 262.132C249.231 261.782 249.756 261.782 250.106 262.132C250.34 262.365 270.943 283.412 278.181 285.686C278.648 285.861 278.882 286.327 278.765 286.794C278.648 287.202 278.298 287.435 277.948 287.435Z" fill="#333333"/>
<path d="M257.11 303.585C256.935 303.585 256.702 303.527 256.585 303.41C252.966 300.495 235.397 277.99 234.697 277.057C234.405 276.649 234.464 276.124 234.872 275.833C235.281 275.541 235.806 275.599 236.098 276.007C236.273 276.241 254.309 299.329 257.752 302.127C258.103 302.419 258.161 303.002 257.869 303.352C257.636 303.468 257.344 303.585 257.11 303.585Z" fill="#333333"/>
<path d="M238.316 307.55C237.966 307.55 237.615 307.317 237.499 306.967C235.339 301.137 221.564 284.054 221.389 283.879C221.097 283.529 221.156 282.946 221.506 282.654C221.856 282.363 222.44 282.421 222.732 282.771C223.315 283.471 236.857 300.262 239.075 306.326C239.25 306.792 239.016 307.258 238.549 307.433C238.491 307.55 238.433 307.55 238.316 307.55Z" fill="#333333"/>
<path d="M188.937 320.026C188.47 320.026 188.061 319.618 188.061 319.152V288.834C188.061 288.368 188.47 287.959 188.937 287.959C189.404 287.959 189.812 288.368 189.812 288.834V319.152C189.812 319.618 189.404 320.026 188.937 320.026Z" fill="#333333"/>
<path d="M136.172 308.191C135.939 308.191 135.764 308.133 135.588 307.958C135.238 307.608 135.18 307.083 135.53 306.734C137.398 304.693 146.386 288.31 150.939 279.972C151.173 279.564 151.698 279.389 152.107 279.623C152.515 279.856 152.69 280.38 152.457 280.789C151.931 281.78 139.266 305.159 136.814 307.9C136.639 308.074 136.406 308.191 136.172 308.191Z" fill="#333333"/>
<path d="M117.028 300.728C116.852 300.728 116.677 300.67 116.561 300.553C116.152 300.262 116.035 299.737 116.327 299.329L135.472 271.401C135.764 270.993 136.289 270.877 136.697 271.168C137.106 271.46 137.223 271.985 136.931 272.393L117.786 300.32C117.553 300.611 117.319 300.728 117.028 300.728Z" fill="#333333"/>
<path d="M101.852 286.152C101.56 286.152 101.327 286.036 101.151 285.803C100.86 285.394 100.976 284.87 101.327 284.578C103.253 283.179 118.078 267.379 123.681 261.432C124.032 261.082 124.557 261.082 124.907 261.373C125.257 261.723 125.257 262.248 124.966 262.598C124.148 263.472 104.829 284.17 102.377 285.977C102.202 286.094 102.027 286.152 101.852 286.152Z" fill="#333333"/>
<path d="M84.7501 268.778C84.4583 268.778 84.2248 268.661 84.0497 268.428C83.7578 268.02 83.8746 267.495 84.2248 267.204L112.533 246.739C112.942 246.448 113.467 246.565 113.759 246.914C114.051 247.322 113.934 247.847 113.584 248.139L85.2754 268.603C85.1003 268.72 84.9252 268.778 84.7501 268.778Z" fill="#333333"/>
<path d="M73.8353 246.623C73.4851 246.623 73.1932 246.448 73.0181 246.098C72.843 245.632 73.0181 245.165 73.4851 244.932L105.237 230.764C105.704 230.589 106.171 230.764 106.405 231.231C106.58 231.697 106.405 232.164 105.938 232.397L74.1855 246.564C74.0688 246.623 73.952 246.623 73.8353 246.623Z" fill="#333333"/>
<path d="M68.3487 224.584C67.9402 224.584 67.5899 224.351 67.5316 223.943C67.4148 223.476 67.6483 223.01 68.1153 222.893L100.684 213.856C101.151 213.74 101.618 213.973 101.735 214.439C101.852 214.906 101.618 215.372 101.151 215.489L68.5822 224.526C68.5238 224.584 68.4071 224.584 68.3487 224.584Z" fill="#333333"/>
<path d="M63.9128 203.129C63.5042 203.129 63.0956 202.837 63.0372 202.371C62.9789 201.904 63.2707 201.438 63.796 201.38L98.1163 196.424C98.5833 196.366 99.0502 196.715 99.1086 197.182C99.1669 197.648 98.8751 198.115 98.3498 198.173L64.0295 203.129C63.9711 203.129 63.9711 203.129 63.9128 203.129Z" fill="#333333"/>
<path d="M62.6871 182.256C62.2785 182.256 61.8699 181.964 61.8115 181.498C61.7532 181.031 62.045 180.565 62.512 180.507L95.8983 175.085C96.3653 175.026 96.8322 175.318 96.8906 175.784C96.949 176.251 96.6571 176.717 96.1902 176.775L62.8038 182.198C62.8038 182.256 62.7454 182.256 62.6871 182.256Z" fill="#333333"/>
<path d="M59.1266 157.71C58.6596 157.71 58.2511 157.36 58.2511 156.836C58.2511 156.369 58.6013 155.961 59.1266 155.961L96.0734 154.912C96.5404 154.912 96.9489 155.261 96.9489 155.786C96.9489 156.253 96.5987 156.661 96.0734 156.661L59.1266 157.71Z" fill="#333333"/>
<path d="M98.4082 138.762L62.687 137.945C62.2201 137.945 61.8115 137.537 61.8115 137.071C61.8115 136.604 62.2201 136.196 62.687 136.196L98.4082 137.013C98.8751 137.013 99.2837 137.421 99.2837 137.887C99.2837 138.412 98.8751 138.762 98.4082 138.762Z" fill="#333333"/>
<path d="M101.56 122.728C101.443 122.728 101.268 122.67 101.151 122.612C101.035 122.553 89.0109 116.373 66.5393 117.423C66.0724 117.423 65.6638 117.073 65.6054 116.606C65.6054 116.14 65.9556 115.732 66.4226 115.674C89.4779 114.624 101.443 120.804 101.969 121.096C102.377 121.329 102.552 121.854 102.319 122.262C102.202 122.553 101.852 122.728 101.56 122.728Z" fill="#333333"/>
<path d="M106.463 106.229C106.405 106.229 106.346 106.229 106.288 106.229C106.054 106.17 84.2831 101.972 71.1504 95.2092C70.7418 94.976 70.5667 94.4513 70.8002 94.0431C71.0336 93.635 71.5589 93.4601 71.9675 93.6933C84.8668 100.398 106.405 104.538 106.638 104.596C107.105 104.713 107.397 105.121 107.338 105.645C107.222 105.937 106.871 106.229 106.463 106.229Z" fill="#333333"/>
<path d="M111.541 93.9268C111.424 93.9268 111.249 93.8685 111.132 93.8102L81.5982 77.7185C81.1896 77.4853 81.0145 76.9605 81.248 76.5524C81.4815 76.1443 82.0068 75.9694 82.4154 76.2026L111.949 92.2943C112.358 92.5275 112.533 93.0522 112.3 93.4604C112.125 93.7519 111.833 93.9268 111.541 93.9268Z" fill="#333333"/>
<path d="M119.654 79.4677C119.479 79.4677 119.304 79.4094 119.129 79.2928L90.3534 58.0121C89.9448 57.7206 89.8865 57.1959 90.1783 56.7878C90.4701 56.3796 90.9955 56.3213 91.404 56.6129L120.179 77.8935C120.588 78.1851 120.646 78.7098 120.354 79.1179C120.179 79.3511 119.946 79.4677 119.654 79.4677Z" fill="#333333"/>
<path d="M128.059 68.7977C127.826 68.7977 127.592 68.6811 127.417 68.5061C127.242 68.3312 112.533 52.5894 104.245 41.4534C103.953 41.0453 104.011 40.5206 104.42 40.2291C104.829 39.9376 105.354 39.9959 105.646 40.404C113.876 51.4816 128.526 67.1652 128.701 67.3401C129.051 67.6899 128.993 68.2729 128.643 68.5645C128.468 68.7394 128.292 68.7977 128.059 68.7977Z" fill="#333333"/>
<path d="M140.608 57.8365C140.433 57.8365 140.316 57.7782 140.141 57.7199C139.908 57.545 133.896 53.9885 129.051 44.3685C124.323 34.9817 118.895 23.7291 118.837 23.6708C118.603 23.2627 118.837 22.738 119.245 22.5048C119.654 22.2715 120.179 22.5048 120.413 22.9129C120.471 23.0295 125.899 34.2237 130.627 43.6105C135.238 52.7641 140.958 56.204 141.017 56.2623C141.425 56.4955 141.6 57.0203 141.309 57.4867C141.192 57.6616 140.9 57.8365 140.608 57.8365Z" fill="#333333"/>
<path d="M152.749 51.1321C152.398 51.1321 152.048 50.8989 151.931 50.5491C151.873 50.3742 146.095 35.3319 143.935 32.067C141.717 28.6271 135.588 15.6254 135.355 15.0424C135.121 14.576 135.355 14.1096 135.764 13.8763C136.172 13.6431 136.697 13.8763 136.931 14.2845C136.989 14.4011 143.235 27.7525 145.394 31.0758C147.612 34.5157 153.274 49.2664 153.507 49.9078C153.682 50.3742 153.449 50.8406 152.982 51.0155C152.982 51.1321 152.865 51.1321 152.749 51.1321Z" fill="#333333"/>
<path d="M165.765 46.9927C165.414 46.9927 165.064 46.7595 164.947 46.4097C164.831 46.0016 161.679 36.1483 160.803 32.7084C159.928 29.3268 154.325 6.47196 154.266 6.23875C154.149 5.77232 154.441 5.30589 154.908 5.18929C155.375 5.07268 155.842 5.3642 155.959 5.83062C156.017 6.06384 161.621 28.9187 162.496 32.3003C163.372 35.6819 166.582 45.7684 166.64 45.885C166.815 46.3514 166.523 46.8178 166.056 46.9927C165.94 46.9927 165.881 46.9927 165.765 46.9927Z" fill="#333333"/>
<path d="M175.629 44.8352C175.162 44.8352 174.753 44.4854 174.753 44.019L172.886 0.0583403C172.886 -0.408086 173.236 -0.816208 173.703 -0.874512C174.17 -0.874512 174.578 -0.524692 174.637 -0.0582662L176.504 43.9024C176.504 44.4271 176.154 44.8352 175.629 44.8352Z" fill="#333333"/>
<path d="M190.337 44.8349C190.337 44.8349 190.279 44.8349 190.337 44.8349C189.812 44.8349 189.462 44.3685 189.462 43.9021C189.52 42.6777 191.155 13.5844 193.022 5.71344C193.139 5.24701 193.606 4.95549 194.073 5.0721C194.54 5.18871 194.832 5.65513 194.715 6.12156C192.906 13.8176 191.213 43.6689 191.155 43.9604C191.213 44.4851 190.804 44.8349 190.337 44.8349Z" fill="#333333"/>
<path d="M200.902 46.5841C200.844 46.5841 200.727 46.5841 200.669 46.5258C200.202 46.4091 199.91 45.9427 200.027 45.4763C200.377 44.077 209.132 11.6021 212.342 7.46258C212.634 7.05445 213.159 6.99615 213.568 7.28767C213.976 7.57918 214.035 8.10391 213.743 8.51203C211.292 11.777 204.229 36.6142 201.778 45.9427C201.661 46.3508 201.311 46.5841 200.902 46.5841Z" fill="#333333"/>
<path d="M214.502 51.1319C214.385 51.1319 214.268 51.1319 214.152 51.0736C213.685 50.8987 213.51 50.374 213.685 49.9075C217.128 41.8034 228.51 15.2754 230.144 13.9927C230.553 13.7012 231.078 13.7595 231.37 14.1677C231.662 14.5758 231.604 15.1005 231.195 15.392C229.969 16.733 220.806 37.7222 215.319 50.6072C215.144 50.957 214.852 51.1319 214.502 51.1319Z" fill="#333333"/>
<path d="M228.335 59.1194C228.218 59.1194 228.101 59.1194 227.985 59.0611C227.518 58.8862 227.343 58.3614 227.576 57.895C227.926 57.1371 236.448 38.7715 248.764 28.86C249.114 28.5685 249.698 28.6268 249.989 28.9766C250.281 29.3264 250.223 29.9094 249.873 30.201C237.849 39.8793 229.269 58.4197 229.152 58.653C228.977 58.9445 228.685 59.1194 228.335 59.1194Z" fill="#333333"/>
<path d="M239.542 70.0805C239.308 70.0805 239.075 70.0222 238.899 69.8473C238.549 69.4975 238.549 68.9727 238.899 68.6229C239.133 68.3897 260.262 47.4005 264.348 43.3776C264.698 43.0278 265.223 43.0278 265.574 43.3776C265.924 43.7274 265.924 44.2521 265.574 44.602C261.488 48.6249 240.359 69.6141 240.125 69.8473C240.008 70.0222 239.775 70.0805 239.542 70.0805Z" fill="#333333"/>
<path d="M248.53 82.616C248.238 82.616 248.005 82.4994 247.83 82.2662C247.538 81.8581 247.596 81.3334 248.005 81.0418L278.298 58.3619C278.706 58.0704 279.232 58.1287 279.524 58.5368C279.815 58.9449 279.757 59.4696 279.348 59.7612L249.056 82.4411C248.88 82.5577 248.705 82.616 248.53 82.616Z" fill="#333333"/>
<path d="M256.76 98.5908C256.527 98.5908 256.235 98.4742 256.06 98.241C255.768 97.8329 255.826 97.3081 256.235 97.0166C256.41 96.9 272.461 84.598 290.964 78.5928C291.431 78.4179 291.897 78.7094 292.073 79.1758C292.248 79.6423 291.956 80.1087 291.489 80.2836C273.278 86.2305 257.46 98.3576 257.344 98.4742C257.11 98.5325 256.935 98.5908 256.76 98.5908Z" fill="#333333"/>
<path d="M263.356 117.306C263.005 117.306 262.714 117.131 262.538 116.781C262.363 116.315 262.538 115.849 263.005 115.615C266.566 114.158 297.793 101.331 302.987 101.331C303.046 101.331 303.046 101.331 303.104 101.331C303.571 101.331 303.98 101.739 303.921 102.264C303.921 102.73 303.513 103.138 302.987 103.08C299.193 102.964 273.337 113.283 263.647 117.248C263.589 117.306 263.472 117.306 263.356 117.306Z" fill="#333333"/>
<path d="M154.208 107.686C156.303 107.686 158.002 105.989 158.002 103.896C158.002 101.803 156.303 100.106 154.208 100.106C152.112 100.106 150.414 101.803 150.414 103.896C150.414 105.989 152.112 107.686 154.208 107.686Z" fill="#333333"/>
<path d="M214.035 105.762C216.13 105.762 217.829 104.065 217.829 101.972C217.829 99.8793 216.13 98.1826 214.035 98.1826C211.94 98.1826 210.241 99.8793 210.241 101.972C210.241 104.065 211.94 105.762 214.035 105.762Z" fill="#333333"/>
<path d="M351.425 58.8862H356.563V83.6979H351.425V67.2193L341.473 83.6979H336.352V58.8862H341.473V75.3989L351.425 58.8862Z" fill="black"/>
<path d="M369.636 70.6956C369.636 70.0481 369.42 69.5482 368.987 69.196C368.566 68.8325 367.963 68.6507 367.178 68.6507C366.37 68.6507 365.71 68.8211 365.198 69.1619C364.697 69.4914 364.447 69.9629 364.447 70.5763H359.514C359.514 68.9063 360.208 67.5487 361.596 66.5035C362.984 65.4584 364.76 64.9358 366.922 64.9358C369.3 64.9358 371.166 65.4016 372.52 66.3331C373.886 67.2647 374.569 68.5882 374.569 70.3037C374.569 71.1216 374.318 71.8771 373.818 72.5701C373.328 73.2518 372.634 73.7971 371.735 74.2061C373.841 74.9445 374.893 76.3703 374.893 78.4833C374.893 80.1761 374.165 81.528 372.708 82.5391C371.263 83.5388 369.334 84.0387 366.922 84.0387C364.68 84.0387 362.836 83.5161 361.391 82.4709C359.946 81.4257 359.223 80.017 359.223 78.2448H364.156C364.156 78.8696 364.435 79.3751 364.993 79.7614C365.55 80.1477 366.279 80.3408 367.178 80.3408C368.054 80.3408 368.737 80.1363 369.226 79.7273C369.715 79.3183 369.96 78.7844 369.96 78.1255C369.96 77.3189 369.727 76.7452 369.26 76.4043C368.794 76.0522 368.094 75.8761 367.161 75.8761H364.481V72.6724H367.331C368.868 72.6269 369.636 71.968 369.636 70.6956Z" fill="black"/>
<path d="M377.486 83.6979V65.2595H385.201C387.716 65.2595 389.645 65.7026 390.988 66.5887C392.33 67.4749 393.002 68.7473 393.002 70.4059C393.002 71.258 392.717 72.0248 392.148 72.7064C391.591 73.3767 390.771 73.8936 389.69 74.2572C391.01 74.5071 392.046 75.0013 392.797 75.7397C393.559 76.4668 393.941 77.3643 393.941 78.4322C393.941 80.1477 393.292 81.4541 391.995 82.3516C390.709 83.2491 388.837 83.6979 386.379 83.6979H377.486ZM382.419 76.0465V79.7614H386.396C388.137 79.7614 389.008 79.1536 389.008 77.938C389.008 76.6997 388.177 76.0692 386.515 76.0465H382.419ZM382.419 72.7405H385.474C387.204 72.7178 388.069 72.1611 388.069 71.0705C388.069 70.4002 387.83 69.9231 387.352 69.6391C386.885 69.3551 386.168 69.2131 385.201 69.2131H382.419V72.7405Z" fill="black"/>
<path d="M407.355 65.2595H412.288V83.6979H407.355V72.3145L401.176 83.6979H396.226V65.2595H401.176V76.6259L407.355 65.2595Z" fill="black"/>
<path d="M424.918 75.0581H415.308V71.0876H424.918V75.0581Z" fill="black"/>
<path d="M352.21 118.598H347.26V111.509H341.132V118.598H336.199V100.159H341.132V107.555H347.26V100.159H352.21V118.598Z" fill="black"/>
<path d="M366.427 100.159H371.36V118.598H366.427V107.214L360.248 118.598H355.297V100.159H360.248V111.526L366.427 100.159Z" fill="black"/>
<path d="M389.725 104.113H383.801V118.598H378.851V104.113H373.031V100.159H389.725V104.113Z" fill="black"/>
<path d="M398.889 118.939C396.18 118.939 393.973 118.109 392.266 116.451C390.57 114.792 389.723 112.582 389.723 109.822V109.345C389.723 107.493 390.081 105.84 390.798 104.386C391.515 102.92 392.528 101.795 393.836 101.011C395.156 100.216 396.658 99.8186 398.343 99.8186C400.869 99.8186 402.855 100.614 404.3 102.204C405.756 103.795 406.485 106.05 406.485 108.97V110.98H394.724C394.883 112.185 395.361 113.15 396.158 113.877C396.966 114.604 397.984 114.968 399.213 114.968C401.114 114.968 402.599 114.281 403.668 112.906L406.092 115.616C405.352 116.661 404.351 117.479 403.088 118.069C401.825 118.649 400.425 118.939 398.889 118.939ZM398.326 103.806C397.347 103.806 396.55 104.136 395.936 104.795C395.333 105.453 394.946 106.396 394.775 107.623H401.637V107.231C401.614 106.141 401.318 105.3 400.749 104.709C400.18 104.107 399.372 103.806 398.326 103.806Z" fill="black"/>
</g>
<defs>
<clipPath id="clip0">
<rect width="550" height="323" fill="white"/>
</clipPath>
</defs>
</svg>
